<?xml version="1.0" encoding="utf-8"?>
<!-- Generator: Adobe Illustrator 23.0.1, SVG Export Plug-In . SVG Version: 6.00 Build 0)  -->
<svg version="1.1" id="Layer_1" xmlns="http://www.w3.org/2000/svg" xmlns:xlink="http://www.w3.org/1999/xlink" x="0px" y="0px"
	 viewBox="0 0 500 500" style="enable-background:new 0 0 500 500;" xml:space="preserve">
<g>
	<g>
		<path fill="white" d="M260.4,33.3v58.6H300v19.6h-39.7v83.2l114.4,160.8v72.9c56.2-39.2,93-104.4,93-178.2C467.7,133.6,375.8,38.4,260.4,33.3z"
			/>
		<path fill="white" d="M126.4,355.5l114.4-160.8v-83.2h-14.2h-24.5V91.9h24.5h14.2V33.3C125.4,38.4,33.4,133.6,33.4,250.2
			c0,73.8,36.8,138.9,93,178.2V355.5z"/>
	</g>
	<path fill="white" d="M250.6,466.7c16.7,0,32.9-1.9,48.5-5.5V354.9l-48.4-69.3l-48.5,69.3v106.3C217.7,464.8,233.9,466.7,250.6,466.7z"/>
</g>
</svg>
